<svg version="1.1" id="Layer_1" xmlns="http://www.w3.org/2000/svg" xmlns:xlink="http://www.w3.org/1999/xlink" x="0px" y="0px"
	 width="100%" viewBox="0 0 629 175" enable-background="new 0 0 629 175" xml:space="preserve">
<path fill="#FDFEFE" opacity="1.000000" stroke="none" 
	d="
M418.000000,176.000000 
	C278.709839,176.000000 139.919662,176.000000 1.064744,176.000000 
	C1.064744,117.728027 1.064744,59.455963 1.064744,1.091948 
	C210.666656,1.091948 420.333313,1.091948 629.967041,1.091948 
	C629.967041,59.413605 629.967041,117.706818 629.967041,176.000000 
	C559.455994,176.000000 488.977997,176.000000 418.000000,176.000000 
M537.235168,141.248627 
	C538.256531,144.921478 538.842102,148.803040 540.463379,152.188660 
	C541.430847,154.209045 544.042114,156.711075 545.879272,156.683167 
	C547.655396,156.656158 550.297363,153.965500 550.977173,151.919327 
	C553.689758,143.755569 555.785767,135.386917 558.109558,127.094017 
	C566.779297,96.155571 575.500854,65.231445 584.062317,34.263077 
	C585.340027,29.641373 587.681213,27.324450 592.585205,28.136423 
	C597.417847,28.936586 597.150391,32.550804 597.147766,36.155624 
	C597.120544,73.645203 597.129761,111.134811 597.137329,148.624405 
	C597.137634,150.120300 596.691895,151.964218 597.391663,153.030823 
	C598.453247,154.648804 600.435303,156.866013 601.848267,156.745285 
	C603.609192,156.594833 605.454285,154.533859 606.737061,152.887924 
	C607.392517,152.046997 606.922546,150.311325 606.922729,148.980057 
	C606.927612,120.987823 606.927185,92.995598 606.927429,65.003365 
	C606.927551,53.839794 607.011902,42.675278 606.887390,31.513096 
	C606.833435,26.683748 606.009827,21.671623 600.172119,20.812044 
	C594.985229,20.048275 589.598877,20.009686 584.373779,20.474247 
	C582.543030,20.637022 580.516174,22.981197 579.328247,24.814749 
	C578.015686,26.840662 577.433350,29.386707 576.755249,31.769476 
	C568.143311,62.028870 559.582825,92.302917 550.978821,122.564575 
	C549.411682,128.076508 547.708740,133.549805 545.808289,139.912048 
	C545.086060,138.060959 544.669189,137.205170 544.412598,136.303757 
	C538.652893,116.073463 532.917603,95.836189 527.163147,75.604401 
	C522.814331,60.314518 518.545044,45.000919 514.046265,29.755159 
	C511.498322,21.120350 509.727936,19.984165 500.995453,19.986286 
	C499.995728,19.986530 498.996002,19.985201 497.996277,19.986269 
	C487.594208,19.997387 484.722656,22.883772 484.721893,33.359550 
	C484.718964,71.848869 484.719910,110.338181 484.723755,148.827499 
	C484.723877,150.159378 484.265564,151.850739 484.903351,152.745636 
	C486.100891,154.425873 487.962036,156.764816 489.514191,156.740311 
	C491.047211,156.716110 492.810242,154.286804 493.941315,152.563950 
	C494.554382,151.630112 494.064575,149.969254 494.064636,148.636353 
	C494.066254,111.646622 494.066803,74.656883 494.068268,37.667152 
	C494.068329,36.334206 493.999084,34.995712 494.094879,33.669388 
	C494.349640,30.142349 496.242645,28.405201 499.819580,28.038290 
	C505.997467,27.404581 506.749725,32.024044 507.908173,36.150803 
	C517.665100,70.908203 527.369141,105.680450 537.235168,141.248627 
M458.054657,113.684807 
	C458.487122,107.556252 459.186676,101.432640 459.300232,95.298180 
	C459.598907,79.165680 459.742340,63.002884 454.935730,47.342484 
	C450.574677,33.133801 442.363953,22.603626 426.553955,21.039474 
	C416.370056,20.031931 406.041504,19.611149 395.822083,20.024189 
	C375.977264,20.826262 365.388275,29.599293 360.030212,48.585102 
	C354.512817,68.135620 355.266785,88.144928 356.598755,108.041351 
	C357.178375,116.699097 359.302917,125.428932 361.960083,133.730988 
	C365.953918,146.209274 374.699127,153.755783 387.998566,156.172501 
	C400.103271,158.372101 412.162628,158.484344 424.229706,156.858856 
	C436.211792,155.244797 446.480225,150.129593 451.278961,138.365997 
	C454.371552,130.784775 455.822357,122.533836 458.054657,113.684807 
M92.415634,48.027271 
	C90.972054,43.096478 89.583778,38.148682 88.074554,33.238068 
	C83.514130,18.399666 86.094177,20.213610 70.408287,19.894032 
	C64.939247,19.782608 62.393642,21.920242 60.887775,27.094284 
	C49.038040,67.809021 37.018536,108.474709 24.891563,149.107819 
	C23.799719,152.766190 23.995455,155.699631 27.670431,156.792236 
	C31.541086,157.942993 33.069344,155.118713 34.074753,151.661041 
	C37.250072,140.740860 40.680275,129.894775 43.976231,119.136353 
	C64.124023,119.136353 83.768105,119.136353 103.770485,119.136353 
	C106.911621,129.916534 110.057724,140.679932 113.180130,151.450226 
	C114.116402,154.679764 115.451904,157.930466 119.505768,156.866898 
	C123.751915,155.752869 123.481476,152.414566 122.404877,148.808029 
	C112.456230,115.480682 102.600220,82.125687 92.415634,48.027271 
M196.182465,87.508362 
	C200.188309,91.483521 201.847321,91.335075 204.997070,86.554779 
	C216.988846,68.355240 228.994919,50.164780 240.882523,31.897305 
	C242.667725,29.153996 244.547989,27.883490 248.035324,27.936981 
	C263.184082,28.169359 278.338440,28.041609 293.490753,28.031454 
	C294.819092,28.030561 296.442780,28.390945 297.404541,27.770342 
	C298.754089,26.899502 300.238953,25.358912 300.451508,23.924809 
	C300.585754,23.018887 298.683167,21.354090 297.371155,20.813187 
	C295.920288,20.215048 294.100861,20.432589 292.441742,20.430212 
	C278.621552,20.410419 264.781158,20.872206 250.988770,20.253817 
	C242.806671,19.886967 237.099411,21.726248 233.381332,29.608526 
	C231.304306,34.011795 227.485062,37.593262 223.974121,42.165981 
	C220.327560,37.632034 217.761719,33.501549 214.292435,30.372862 
	C210.211655,26.692696 208.322662,20.233067 201.009323,20.355225 
	C185.195496,20.619370 169.373276,20.354895 153.556839,20.525478 
	C151.454239,20.548157 149.365372,21.845083 147.270142,22.551897 
	C148.079315,24.742714 148.399124,27.318293 149.772720,29.065359 
	C164.995087,48.426708 180.380798,67.659630 196.182465,87.508362 
M149.135925,157.138123 
	C166.635269,157.149628 184.135315,157.083344 201.633392,157.237946 
	C205.155487,157.269058 207.476318,156.354141 209.385757,153.187210 
	C213.128036,146.980438 217.331985,141.052032 221.645081,134.556290 
	C227.211136,141.338593 232.205063,147.779572 237.641937,153.822021 
	C239.181778,155.533356 242.000015,156.981781 244.256927,157.018570 
	C260.585419,157.284790 276.920776,157.208344 293.252716,157.084106 
	C295.053528,157.070404 298.321045,156.175552 298.368530,155.508591 
	C298.513733,153.468781 297.973724,150.905899 296.723480,149.313278 
	C281.502106,129.923538 266.113251,110.665176 250.749374,91.387474 
	C246.331238,85.843834 244.713593,85.902519 240.863785,91.741219 
	C228.946625,109.815048 216.981476,127.858124 205.221207,146.033661 
	C203.258957,149.066315 201.135742,150.139297 197.560028,150.093918 
	C181.896255,149.895142 166.227722,149.930176 150.563629,150.113327 
	C148.937805,150.132324 147.330048,151.695145 145.713898,152.541641 
	C146.568924,154.056900 147.423935,155.572159 149.135925,157.138123 
M321.055389,53.499992 
	C321.057037,85.778374 321.078705,118.056778 321.031830,150.335083 
	C321.026672,153.883606 321.835144,156.947632 325.884583,156.935898 
	C329.889008,156.924316 330.862122,153.830551 330.861023,150.319901 
	C330.847931,109.056824 330.847992,67.793747 330.858032,26.530668 
	C330.858917,22.909067 329.565674,19.959925 325.613129,20.126167 
	C322.008759,20.277771 320.973785,23.113548 321.018921,26.544683 
	C321.132721,35.195114 321.055847,43.848057 321.055389,53.499992 
z"/>
<path fill="#080E1A" opacity="1.000000" stroke="none" 
	d="
M537.162109,140.848419 
	C527.369141,105.680450 517.665100,70.908203 507.908173,36.150803 
	C506.749725,32.024044 505.997467,27.404581 499.819580,28.038290 
	C496.242645,28.405201 494.349640,30.142349 494.094879,33.669388 
	C493.999084,34.995712 494.068329,36.334206 494.068268,37.667152 
	C494.066803,74.656883 494.066254,111.646622 494.064636,148.636353 
	C494.064575,149.969254 494.554382,151.630112 493.941315,152.563950 
	C492.810242,154.286804 491.047211,156.716110 489.514191,156.740311 
	C487.962036,156.764816 486.100891,154.425873 484.903351,152.745636 
	C484.265564,151.850739 484.723877,150.159378 484.723755,148.827499 
	C484.719910,110.338181 484.718964,71.848869 484.721893,33.359550 
	C484.722656,22.883772 487.594208,19.997387 497.996277,19.986269 
	C498.996002,19.985201 499.995728,19.986530 500.995453,19.986286 
	C509.727936,19.984165 511.498322,21.120350 514.046265,29.755159 
	C518.545044,45.000919 522.814331,60.314518 527.163147,75.604401 
	C532.917603,95.836189 538.652893,116.073463 544.412598,136.303757 
	C544.669189,137.205170 545.086060,138.060959 545.808289,139.912048 
	C547.708740,133.549805 549.411682,128.076508 550.978821,122.564575 
	C559.582825,92.302917 568.143311,62.028870 576.755249,31.769476 
	C577.433350,29.386707 578.015686,26.840662 579.328247,24.814749 
	C580.516174,22.981197 582.543030,20.637022 584.373779,20.474247 
	C589.598877,20.009686 594.985229,20.048275 600.172119,20.812044 
	C606.009827,21.671623 606.833435,26.683748 606.887390,31.513096 
	C607.011902,42.675278 606.927551,53.839794 606.927429,65.003365 
	C606.927185,92.995598 606.927612,120.987823 606.922729,148.980057 
	C606.922546,150.311325 607.392517,152.046997 606.737061,152.887924 
	C605.454285,154.533859 603.609192,156.594833 601.848267,156.745285 
	C600.435303,156.866013 598.453247,154.648804 597.391663,153.030823 
	C596.691895,151.964218 597.137634,150.120300 597.137329,148.624405 
	C597.129761,111.134811 597.120544,73.645203 597.147766,36.155624 
	C597.150391,32.550804 597.417847,28.936586 592.585205,28.136423 
	C587.681213,27.324450 585.340027,29.641373 584.062317,34.263077 
	C575.500854,65.231445 566.779297,96.155571 558.109558,127.094017 
	C555.785767,135.386917 553.689758,143.755569 550.977173,151.919327 
	C550.297363,153.965500 547.655396,156.656158 545.879272,156.683167 
	C544.042114,156.711075 541.430847,154.209045 540.463379,152.188660 
	C538.842102,148.803040 538.256531,144.921478 537.162109,140.848419 
z"/>
<path fill="#080E19" opacity="1.000000" stroke="none" 
	d="
M458.031799,114.133926 
	C455.822357,122.533836 454.371552,130.784775 451.278961,138.365997 
	C446.480225,150.129593 436.211792,155.244797 424.229706,156.858856 
	C412.162628,158.484344 400.103271,158.372101 387.998566,156.172501 
	C374.699127,153.755783 365.953918,146.209274 361.960083,133.730988 
	C359.302917,125.428932 357.178375,116.699097 356.598755,108.041351 
	C355.266785,88.144928 354.512817,68.135620 360.030212,48.585102 
	C365.388275,29.599293 375.977264,20.826262 395.822083,20.024189 
	C406.041504,19.611149 416.370056,20.031931 426.553955,21.039474 
	C442.363953,22.603626 450.574677,33.133801 454.935730,47.342484 
	C459.742340,63.002884 459.598907,79.165680 459.300232,95.298180 
	C459.186676,101.432640 458.487122,107.556252 458.031799,114.133926 
M415.156219,27.031376 
	C410.492218,27.027052 405.802643,26.704481 401.168823,27.076370 
	C385.477356,28.335697 374.146545,31.440449 368.826874,52.820274 
	C366.681366,61.443008 365.892151,70.528084 365.537842,79.444550 
	C364.884247,95.893768 364.655487,112.424385 369.954010,128.359406 
	C373.496002,139.011658 380.123718,146.866425 391.717896,148.561447 
	C399.406525,149.685501 407.324310,150.237747 415.067841,149.794312 
	C434.177490,148.700027 442.646576,141.417877 446.986877,122.913025 
	C450.981903,105.880241 450.616821,88.524712 449.320496,71.258583 
	C448.717194,63.223255 447.178711,55.117668 444.909943,47.382469 
	C441.893890,37.099396 434.744781,30.468218 423.946930,28.324682 
	C421.342865,27.807741 418.703339,27.469204 415.156219,27.031376 
z"/>
<path fill="#090F1A" opacity="1.000000" stroke="none" 
	d="
M92.566460,48.402996 
	C102.600220,82.125687 112.456230,115.480682 122.404877,148.808029 
	C123.481476,152.414566 123.751915,155.752869 119.505768,156.866898 
	C115.451904,157.930466 114.116402,154.679764 113.180130,151.450226 
	C110.057724,140.679932 106.911621,129.916534 103.770485,119.136353 
	C83.768105,119.136353 64.124023,119.136353 43.976231,119.136353 
	C40.680275,129.894775 37.250072,140.740860 34.074753,151.661041 
	C33.069344,155.118713 31.541086,157.942993 27.670431,156.792236 
	C23.995455,155.699631 23.799719,152.766190 24.891563,149.107819 
	C37.018536,108.474709 49.038040,67.809021 60.887775,27.094284 
	C62.393642,21.920242 64.939247,19.782608 70.408287,19.894032 
	C86.094177,20.213610 83.514130,18.399666 88.074554,33.238068 
	C89.583778,38.148682 90.972054,43.096478 92.566460,48.402996 
M89.079849,69.432526 
	C85.595627,57.521210 82.132065,45.603779 78.611320,33.703266 
	C77.821098,31.032200 77.188667,27.374483 73.505798,28.309317 
	C71.578293,28.798584 69.566185,31.495836 68.818596,33.626236 
	C66.356880,40.641445 64.416252,47.841888 62.345818,54.991550 
	C56.964424,73.574654 51.620480,92.168594 46.199455,110.973770 
	C64.606300,110.973770 82.697029,110.973770 101.290909,110.973770 
	C97.224533,97.160454 93.258110,83.686668 89.079849,69.432526 
z"/>
<path fill="#2786EF" opacity="1.000000" stroke="none" 
	d="
M195.952423,87.217819 
	C180.380798,67.659630 164.995087,48.426708 149.772720,29.065359 
	C148.399124,27.318293 148.079315,24.742714 147.270142,22.551895 
	C149.365372,21.845083 151.454239,20.548157 153.556839,20.525478 
	C169.373276,20.354895 185.195496,20.619370 201.009323,20.355225 
	C208.322662,20.233067 210.211655,26.692696 214.292435,30.372862 
	C217.761719,33.501549 220.327560,37.632034 223.974121,42.165981 
	C227.485062,37.593262 231.304306,34.011795 233.381332,29.608526 
	C237.099411,21.726248 242.806671,19.886967 250.988770,20.253817 
	C264.781158,20.872206 278.621552,20.410419 292.441742,20.430212 
	C294.100861,20.432589 295.920288,20.215048 297.371155,20.813187 
	C298.683167,21.354090 300.585754,23.018887 300.451508,23.924809 
	C300.238953,25.358912 298.754089,26.899502 297.404541,27.770342 
	C296.442780,28.390945 294.819092,28.030561 293.490753,28.031454 
	C278.338440,28.041609 263.184082,28.169359 248.035324,27.936981 
	C244.547989,27.883490 242.667725,29.153996 240.882523,31.897305 
	C228.994919,50.164780 216.988846,68.355240 204.997070,86.554779 
	C201.847321,91.335075 200.188309,91.483521 195.952423,87.217819 
M181.499893,28.022455 
	C174.134811,28.022455 166.769730,28.022455 158.314056,28.022455 
	C172.699615,46.079617 186.237030,63.072182 200.087906,80.458199 
	C203.782852,74.864037 207.077438,69.891556 210.355698,64.908348 
	C213.629654,59.931702 216.887253,54.944286 220.163452,49.944157 
	C218.114822,47.390423 216.391083,45.148636 214.569336,42.989552 
	C210.397003,38.044674 207.062790,31.235891 201.727448,28.753550 
	C196.365524,26.258831 188.991821,28.088078 181.499893,28.022455 
z"/>
<path fill="#2886EF" opacity="1.000000" stroke="none" 
	d="
M148.707428,157.112762 
	C147.423935,155.572159 146.568924,154.056900 145.713898,152.541641 
	C147.330048,151.695145 148.937805,150.132324 150.563629,150.113327 
	C166.227722,149.930176 181.896255,149.895142 197.560028,150.093918 
	C201.135742,150.139297 203.258957,149.066315 205.221207,146.033661 
	C216.981476,127.858124 228.946625,109.815048 240.863785,91.741219 
	C244.713593,85.902519 246.331238,85.843834 250.749374,91.387474 
	C266.113251,110.665176 281.502106,129.923538 296.723480,149.313278 
	C297.973724,150.905899 298.513733,153.468781 298.368530,155.508591 
	C298.321045,156.175552 295.053528,157.070404 293.252716,157.084106 
	C276.920776,157.208344 260.585419,157.284790 244.256927,157.018570 
	C242.000015,156.981781 239.181778,155.533356 237.641937,153.822021 
	C232.205063,147.779572 227.211136,141.338593 221.645081,134.556290 
	C217.331985,141.052032 213.128036,146.980438 209.385757,153.187210 
	C207.476318,156.354141 205.155487,157.269058 201.633392,157.237946 
	C184.135315,157.083344 166.635269,157.149628 148.707428,157.112762 
M278.915924,138.599915 
	C268.076782,125.036835 257.237671,111.473763 246.003906,97.416901 
	C239.390457,107.451515 233.128571,116.802155 227.123764,126.315071 
	C226.571289,127.190315 227.239609,129.426147 228.054688,130.476227 
	C232.434128,136.118240 236.872589,141.736481 241.669540,147.018875 
	C243.092621,148.585999 245.725586,149.821838 247.835236,149.870834 
	C259.629364,150.144730 271.433075,150.020370 283.233429,149.993286 
	C284.428314,149.990540 285.622650,149.728943 287.400299,149.518433 
	C284.412842,145.687836 281.872803,142.430969 278.915924,138.599915 
z"/>
<path fill="#0B131D" opacity="1.000000" stroke="none" 
	d="
M321.055389,52.999992 
	C321.055847,43.848057 321.132721,35.195114 321.018921,26.544683 
	C320.973785,23.113548 322.008759,20.277771 325.613129,20.126167 
	C329.565674,19.959925 330.858917,22.909067 330.858032,26.530668 
	C330.847992,67.793747 330.847931,109.056824 330.861023,150.319901 
	C330.862122,153.830551 329.889008,156.924316 325.884583,156.935898 
	C321.835144,156.947632 321.026672,153.883606 321.031830,150.335083 
	C321.078705,118.056778 321.057037,85.778374 321.055389,52.999992 
z"/>
<path fill="#FDFEFE" opacity="1.000000" stroke="none" 
	d="
M415.618164,27.040001 
	C418.703339,27.469204 421.342865,27.807741 423.946930,28.324682 
	C434.744781,30.468218 441.893890,37.099396 444.909943,47.382469 
	C447.178711,55.117668 448.717194,63.223255 449.320496,71.258583 
	C450.616821,88.524712 450.981903,105.880241 446.986877,122.913025 
	C442.646576,141.417877 434.177490,148.700027 415.067841,149.794312 
	C407.324310,150.237747 399.406525,149.685501 391.717896,148.561447 
	C380.123718,146.866425 373.496002,139.011658 369.954010,128.359406 
	C364.655487,112.424385 364.884247,95.893768 365.537842,79.444550 
	C365.892151,70.528084 366.681366,61.443008 368.826874,52.820274 
	C374.146545,31.440449 385.477356,28.335697 401.168823,27.076370 
	C405.802643,26.704481 410.492218,27.027052 415.618164,27.040001 
z"/>
<path fill="#FCFCFC" opacity="1.000000" stroke="none" 
	d="
M89.185760,69.822708 
	C93.258110,83.686668 97.224533,97.160454 101.290909,110.973770 
	C82.697029,110.973770 64.606300,110.973770 46.199455,110.973770 
	C51.620480,92.168594 56.964424,73.574654 62.345818,54.991550 
	C64.416252,47.841888 66.356880,40.641445 68.818596,33.626236 
	C69.566185,31.495836 71.578293,28.798584 73.505798,28.309317 
	C77.188667,27.374483 77.821098,31.032200 78.611320,33.703266 
	C82.132065,45.603779 85.595627,57.521210 89.185760,69.822708 
z"/>
<path fill="#F8FDFE" opacity="1.000000" stroke="none" 
	d="
M181.999817,28.022463 
	C188.991821,28.088078 196.365524,26.258831 201.727448,28.753550 
	C207.062790,31.235891 210.397003,38.044674 214.569336,42.989552 
	C216.391083,45.148636 218.114822,47.390423 220.163452,49.944157 
	C216.887253,54.944286 213.629654,59.931702 210.355698,64.908348 
	C207.077438,69.891556 203.782852,74.864037 200.087906,80.458199 
	C186.237030,63.072182 172.699615,46.079617 158.314056,28.022455 
	C166.769730,28.022455 174.134811,28.022455 181.999817,28.022463 
z"/>
<path fill="#F8FDFE" opacity="1.000000" stroke="none" 
	d="
M279.124359,138.887009 
	C281.872803,142.430969 284.412842,145.687836 287.400299,149.518433 
	C285.622650,149.728943 284.428314,149.990540 283.233429,149.993286 
	C271.433075,150.020370 259.629364,150.144730 247.835236,149.870834 
	C245.725586,149.821838 243.092621,148.585999 241.669540,147.018875 
	C236.872589,141.736481 232.434128,136.118240 228.054688,130.476227 
	C227.239609,129.426147 226.571289,127.190315 227.123764,126.315071 
	C233.128571,116.802155 239.390457,107.451515 246.003906,97.416901 
	C257.237671,111.473763 268.076782,125.036835 279.124359,138.887009 
z"/>
</svg>