<?xml version="1.0" standalone="no"?>
<!DOCTYPE svg PUBLIC "-//W3C//DTD SVG 20010904//EN"
 "http://www.w3.org/TR/2001/REC-SVG-20010904/DTD/svg10.dtd">
<svg version="1.0" xmlns="http://www.w3.org/2000/svg"
 width="354.000000pt" height="80.000000pt" viewBox="0 0 354.000000 80.000000"
 preserveAspectRatio="xMidYMid meet">

<g transform="translate(0.000000,80.000000) scale(0.100000,-0.100000)"
fill="#000000" stroke="none">
<path d="M684 705 c-4 -8 -2 -21 3 -28 57 -74 167 -210 196 -240 43 -47 56
-43 107 32 19 28 38 51 43 51 4 0 7 6 7 14 0 8 4 16 8 18 5 2 27 31 51 66 l42
62 130 0 c119 0 130 2 127 18 -3 15 -18 17 -123 20 -66 1 -129 1 -140 -2 -11
-3 -34 -28 -50 -55 -17 -28 -33 -51 -36 -51 -3 0 -21 21 -39 48 -19 26 -39 50
-44 54 -6 4 -71 8 -144 8 -109 0 -134 -3 -138 -15z m304 -78 c39 -53 40 -54
23 -83 -9 -16 -19 -31 -24 -32 -4 -2 -5 -8 -1 -13 3 -5 -2 -12 -10 -15 -9 -3
-14 -10 -11 -14 3 -4 -4 -19 -15 -31 l-20 -24 -30 35 c-17 19 -30 38 -30 43 0
5 -29 47 -65 93 -36 46 -65 86 -65 89 0 3 47 5 104 5 l104 0 40 -53z"/>
<path d="M2115 696 c-58 -26 -109 -80 -139 -145 -32 -69 -30 -235 3 -308 26
-59 91 -125 147 -148 55 -23 64 -20 64 19 0 28 -4 35 -25 40 -14 4 -43 24 -65
46 -111 111 -87 358 42 429 42 23 48 30 48 59 0 38 -9 39 -75 8z"/>
<path d="M2310 688 c0 -29 6 -36 48 -59 94 -52 137 -198 98 -333 -18 -63 -76
-131 -121 -142 -21 -5 -25 -12 -25 -40 0 -39 11 -42 65 -20 52 22 120 91 146
149 33 73 35 239 3 308 -30 65 -81 119 -139 145 -66 31 -75 30 -75 -8z"/>
<path d="M145 488 c-44 -122 -94 -262 -112 -310 l-31 -88 43 0 43 0 27 80 27
81 145 -3 146 -3 26 -75 26 -75 43 -3 c33 -2 43 0 40 11 -1 7 -52 147 -113
310 l-110 297 -60 0 -60 0 -80 -222z m200 2 c30 -84 55 -157 55 -162 0 -4 -52
-8 -116 -8 -89 0 -115 3 -111 13 2 6 28 81 57 165 29 84 55 151 57 148 2 -2
28 -72 58 -156z"/>
<path d="M1560 400 l0 -310 40 0 40 0 0 310 0 310 -40 0 -40 0 0 -310z"/>
<path d="M2860 400 l0 -310 35 0 35 0 2 276 3 275 110 -273 111 -273 41 -3 40
-3 91 223 c50 123 100 246 111 273 l20 50 0 -272 1 -273 40 0 40 0 0 310 0
311 -62 -3 -62 -3 -102 -251 c-55 -138 -104 -262 -108 -275 -5 -19 -15 -1 -54
101 -26 69 -75 194 -107 277 l-60 153 -62 0 -63 0 0 -310z"/>
</g>
</svg>
